<svg width="278" height="278" viewBox="0 0 278 278" fill="none" xmlns="http://www.w3.org/2000/svg"><path fill-rule="evenodd" clip-rule="evenodd" d="M0 32C0 14.327 14.327 0 32 0h214c17.673 0 32 14.327 32 32v214c0 17.673-14.327 32-32 32H32c-17.673 0-32-14.327-32-32V32zm221.406 34.422h-62.718V237H116.5V66.422H54.625V32.25h166.781v34.172zm-35.289 36.394h20.25v-8.261h-20.25v-12.2h23.695v-8.543H175.57V125h34.313v-8.473h-23.766v-13.711zm15.996 65.754c0-1.992-.703-3.515-2.109-4.57-1.406-1.078-3.938-2.203-7.594-3.375-3.656-1.195-6.551-2.367-8.683-3.516-5.813-3.14-8.719-7.371-8.719-12.691 0-2.766.773-5.227 2.32-7.383 1.57-2.18 3.809-3.879 6.715-5.097 2.93-1.219 6.211-1.829 9.844-1.829 3.656 0 6.914.668 9.773 2.004 2.86 1.313 5.074 3.176 6.645 5.59 1.593 2.414 2.39 5.156 2.39 8.227h-10.547c0-2.344-.738-4.16-2.214-5.45-1.477-1.312-3.551-1.968-6.223-1.968-2.578 0-4.582.55-6.012 1.652-1.429 1.078-2.144 2.508-2.144 4.289 0 1.664.832 3.059 2.496 4.184 1.687 1.125 4.16 2.179 7.418 3.164 6 1.804 10.371 4.043 13.113 6.715 2.742 2.672 4.113 6 4.113 9.984 0 4.43-1.675 7.91-5.027 10.441-3.352 2.508-7.863 3.762-13.535 3.762-3.938 0-7.524-.715-10.758-2.144-3.234-1.454-5.707-3.434-7.418-5.942-1.687-2.508-2.531-5.414-2.531-8.719h10.582c0 5.649 3.375 8.473 10.125 8.473 2.508 0 4.465-.504 5.871-1.512 1.406-1.031 2.109-2.461 2.109-4.289zm-3.691 25.785h15.68v-8.543h-41.696v8.543h15.469V237h10.547v-42.645z" fill="#303228"/><path d="M17 11h244v244H17V11z" fill="#CFEBDF"/><path fill-rule="evenodd" clip-rule="evenodd" d="M0 32C0 14.327 14.327 0 32 0h214c17.673 0 32 14.327 32 32v214c0 17.673-14.327 32-32 32H32c-17.673 0-32-14.327-32-32V32zm221.406 34.422h-62.718V237H116.5V66.422H54.625V32.25h166.781v34.172zm-35.289 36.394h20.25v-8.261h-20.25v-12.2h23.695v-8.543H175.57V125h34.313v-8.473h-23.766v-13.711zm15.996 65.754c0-1.992-.703-3.515-2.109-4.57-1.406-1.078-3.938-2.203-7.594-3.375-3.656-1.195-6.551-2.367-8.683-3.516-5.813-3.14-8.719-7.371-8.719-12.691 0-2.766.773-5.227 2.32-7.383 1.57-2.18 3.809-3.879 6.715-5.097 2.93-1.219 6.211-1.829 9.844-1.829 3.656 0 6.914.668 9.773 2.004 2.86 1.313 5.074 3.176 6.645 5.59 1.593 2.414 2.39 5.156 2.39 8.227h-10.547c0-2.344-.738-4.16-2.214-5.45-1.477-1.312-3.551-1.968-6.223-1.968-2.578 0-4.582.55-6.012 1.652-1.429 1.078-2.144 2.508-2.144 4.289 0 1.664.832 3.059 2.496 4.184 1.687 1.125 4.16 2.179 7.418 3.164 6 1.804 10.371 4.043 13.113 6.715 2.742 2.672 4.113 6 4.113 9.984 0 4.43-1.675 7.91-5.027 10.441-3.352 2.508-7.863 3.762-13.535 3.762-3.938 0-7.524-.715-10.758-2.144-3.234-1.454-5.707-3.434-7.418-5.942-1.687-2.508-2.531-5.414-2.531-8.719h10.582c0 5.649 3.375 8.473 10.125 8.473 2.508 0 4.465-.504 5.871-1.512 1.406-1.031 2.109-2.461 2.109-4.289zm-3.691 25.785h15.68v-8.543h-41.696v8.543h15.469V237h10.547v-42.645z" fill="#303228"/></svg>